<?xml version="1.0" encoding="UTF-8" standalone="no"?>
<!DOCTYPE svg PUBLIC "-//W3C//DTD SVG 1.1//EN" "http://www.w3.org/Graphics/SVG/1.1/DTD/svg11.dtd">
<svg version="1.1" xmlns="http://www.w3.org/2000/svg" xmlns:xlink="http://www.w3.org/1999/xlink" preserveAspectRatio="xMidYMid meet" viewBox="0 0 880 157" width="880" height="157"><defs><path d="M730.2 130.2C734.8 121.1 748.3 112 757.2 112C757.4 112 758.4 112 760.2 112C759.9 108.88 759.73 107.15 759.7 106.8C759.4 103.9 758.2 97.1 757.1 91.8C755.3 83.8 755.2 81.2 756 77.3C758.1 68.3 765 60 773.6 56.4C777.1 54.9 777.4 55 781.2 57.7C786.3 61.1 794.9 70.8 795.6 73.7C796.4 76.9 794.2 85.4 791.6 89.3C790.4 91 788.4 92.7 787.1 92.8C784.8 93.2 784.7 93 785.5 89.3C787.6 78.9 786 75.5 780 78C774.9 80.1 771.8 87.9 771.2 100.2C771.17 100.85 771 104.12 770.7 110C774.12 110 776.02 110 776.4 110C781.2 110 782 110.3 782 111.9C782 113.2 780.7 114.1 776.8 115.1C776.45 115.19 774.68 115.66 771.5 116.5C771.14 121.3 770.94 123.97 770.9 124.5C770.2 135.4 767.7 142.4 762.6 147.4C757.2 152.8 751.9 155.3 744.5 155.8C739.1 156.1 738.1 155.9 734.3 153.1C726.4 147.4 725.2 140.4 730.2 130.2ZM759.4 128.7C762.3 120.1 761.3 119.2 753.9 123.8C744.4 129.9 737.3 141 739.9 145.9C741.5 148.7 742.9 148.6 747.8 145.1C752.7 141.5 757.2 135.2 759.4 128.7Z" id="drJZ963TX"></path><path d="M1 20L27 20L53 20L53 33L53 46L65.5 46L78 46L78 33L78 20L91.5 20L105 20L105 72.5L105 125L130.7 125L156.3 125L155.7 72.5L155.2 20L245.6 20L336 20L336 46L336 72L349 72L362 72L362 46L362 20L388 20L414 20L414 46L414 72L426.5 72L439 72L439 46L439 20L452 20L465 20L465 46.5L465 73L452 73L439 73L439 112.5L439 152L426 152L413 152L413 112.5L413 73L387.5 73L362 73L362 86L362 99L375 99L388 99L388 125.5L388 152L375 152L362 152L362 125.5L362 99L349 99L336 99L336 125.5L336 152L207 152L78 152L78 139L78 126L65.5 126L53 126L53 139L53 152L27 152L1 152L1 86L1 20ZM53 99L65.5 99L78 99L78 86L78 73L65.5 73L53 73L53 86L53 99L40 99L27 99L27 112L27 125L40 125L53 125L53 112L53 99ZM207 47L194.5 47L182 47L182 86L182 125L194.5 125L207 125L207 86L207 47ZM310 47L284.5 47L259 47L259 86L259 125L284.5 125L310 125L310 86L310 47ZM53 47L40 47L27 47L27 59.5L27 72L40 72L53 72L53 59.5L53 47Z" id="d7mjvNVb7j"></path><path d="M487.9 138.2C485.8 135.7 484 133.2 484 132.5C484 125.9 511.4 62 520.8 46.6C523.2 42.8 524.8 39.5 524.5 39.2C523.8 38.4 515.3 41.8 507.1 46.2C503 48.3 499.2 49.9 498.6 49.7C497 49 491.2 38.9 490.8 36C490.6 33.9 491.3 33.1 495.5 30.8C502.8 26.8 514.9 23.2 528.5 20.8C557.8 15.8 580.4 21.8 587.9 36.5C591.7 43.7 591.6 54.3 587.7 62.1C585.1 67.4 578.6 74.5 573 78.1C572.84 78.21 572.04 78.74 570.6 79.7C572.76 81.62 573.96 82.69 574.2 82.9C580 87.9 583.5 96.1 583.4 104.1C583.3 121.3 566.1 139.6 542.5 147.6C536 149.8 532.4 150.4 523 150.6C516.7 150.8 509.8 150.5 507.6 149.9C501.2 148.3 492.1 142.9 487.9 138.2ZM572 98.3C572 92.4 570.5 88.7 566.7 85.1C564.2 82.8 564 82.8 559.3 84.3C552.1 86.7 543.5 88 535.5 88C529.7 88 527.8 87.6 525.6 85.9C524.1 84.7 522.7 84 522.4 84.2C520.6 86.1 504 129.5 504 132.5C504 136.1 522.6 136.7 535.1 133.5C556.5 128.1 572 113.2 572 98.3ZM576.8 60.6C586.3 52 585.8 39.6 575.8 34.4C572.1 32.5 559.5 31.5 551.6 32.4C546.9 33 546 33.5 546 35.2C546 36.3 544.5 39.8 542.6 42.9C538.7 49.4 528 70.6 528 71.8C528 72.3 530.8 72.3 534.3 71.8C537.7 71.3 542.6 71.2 545.3 71.6C554.1 72.7 569.2 67.5 576.8 60.6Z" id="a1HyNv0Oq7"></path><path d="M796.1 127C797.9 110.9 806.4 81 814.7 61.5C822.2 44 834.3 23.5 845.9 8.7C850.4 2.9 850.6 2.9 854.7 3.4C859.4 4 867.9 7.9 869.9 10.4C871.1 11.8 870.2 13.2 863.6 20.4C849.5 36 839.4 50.4 831.5 66.5C825 79.7 818 97.6 818 100.9C818 101.5 822.2 97.2 827.3 91.3C837.1 79.9 847.9 70.1 854.5 66.7C859.4 64.2 866.3 64 871 66.4C875.1 68.5 880 72.9 880 74.4C880 75 877.5 78.9 874.4 83C862.6 98.9 851 121 851 127.8C851 131.1 851 131.2 855.2 130.8C858.5 130.6 859.5 130.9 859.8 132.2C860.2 134.3 848.8 140.1 844 140.2C839.4 140.3 835 135.2 835 129.9C835 125.1 840.5 109.4 847.5 94C850.6 87.3 852.9 81.6 852.7 81.4C852 80.7 840.8 89.4 836.4 94.1C825.3 105.9 816.3 118.9 808 135.4C804.9 141.4 801.9 146.5 801.2 146.8C800.5 147 798.9 144.9 797.5 141.8C795.2 136.7 795.1 136 796.1 127Z" id="c2q10vyMHK"></path><path d="M589.4 134.2C589.7 133.3 590.8 128.9 591.9 124.5C598.7 97.6 612.3 62.3 616.6 60.6C618.1 60 628.7 64.4 631.1 66.5C632.9 68.2 632.9 68.4 630.1 72.4C626 78.4 619 93.2 619 96C619 97.3 639.5 75.8 642.7 71.3C646.9 65.3 648.6 64.4 653.6 66C657 67.2 657.2 67.4 656.4 70.4C655.9 72.1 655.5 78.8 655.5 85.3C655.5 97.1 655.5 97.2 652.4 100.8C652.2 101.04 651.2 102.24 649.4 104.4C646.34 101.58 644.64 100.01 644.3 99.7C641.5 97.1 638.7 93.6 638 92C637.92 91.8 637.52 90.8 636.8 89C634.1 90.98 632.6 92.08 632.3 92.3C619.7 101.3 611.3 114.2 606.5 132C602.6 146.1 603.2 145.3 598.5 143.1C593.1 140.6 588.7 136.4 589.4 134.2Z" id="cV6wKFPjA"></path><path d="M657 125.6C657 109.4 671.6 76.1 683.5 65.1C687.6 61.4 688.5 60.9 691.3 61.6C695.3 62.4 702 65.8 702 66.9C702 67.4 699.9 70.8 697.3 74.6C687.8 88.7 676.7 115.2 675.3 127.4C674.8 131.7 674.9 132.2 676.6 131.8C680.2 131.2 701.5 102.4 706.2 92C712.4 78.1 716.1 71.3 718.9 68.6C721.8 65.8 722 65.8 726.7 66.9C732.8 68.4 736 70.5 736 72.9C736 73.9 732.8 81.2 728.9 89.1C715.8 115.6 713.8 126.1 719.5 139.2C720.9 142.5 717.2 142.3 709.6 138.7C701.1 134.7 699.4 132.3 698.2 123.2C698.15 122.82 697.92 120.92 697.5 117.5C693.3 122.9 690.97 125.9 690.5 126.5C677.7 142.9 675.2 144.3 666.3 139.9C659.3 136.4 657 132.9 657 125.6Z" id="b2pq1u89rl"></path><path d="M78.4 20L91.7 20L105 20L105 72.5L105 125L130.5 125L156 125L156 138.5L156 152L117.2 152L78.4 152L78.4 86L78.4 20Z" id="a1UhillVko"></path><path d="M233 20L271.5 20L310 20L310 33.5L310 47L284.5 47L259 47L259 86L259 125L284.5 125L310 125L310 138.5L310 152L271.5 152L233 152L233 86L233 20Z" id="bhRuyXwOr"></path><path d="M413 73L400.5 73L388 73L388 46.5L388 20L401 20L414 20L414 46L414 72L426.5 72L439 72L439 46L439 20L452 20L465 20L465 46.5L465 73L452 73L439 73L439 112.5L439 152L426 152L413 152L413 112.5L413 73Z" id="fi8kN7HKN"></path><path d="" id="bt4YZOszb"></path></defs><g><g><g><use xlink:href="#drJZ963TX" opacity="1" fill="#9f9f9f" fill-opacity="1"></use><g><use xlink:href="#drJZ963TX" opacity="1" fill-opacity="0" stroke="#000000" stroke-width="1" stroke-opacity="0"></use></g></g><g><use xlink:href="#d7mjvNVb7j" opacity="1" fill="#9f9f9f" fill-opacity="1"></use><g><use xlink:href="#d7mjvNVb7j" opacity="1" fill-opacity="0" stroke="#000000" stroke-width="1" stroke-opacity="0"></use></g></g><g><use xlink:href="#a1HyNv0Oq7" opacity="1" fill="#9f9f9f" fill-opacity="1"></use><g><use xlink:href="#a1HyNv0Oq7" opacity="1" fill-opacity="0" stroke="#000000" stroke-width="1" stroke-opacity="0"></use></g></g><g><use xlink:href="#c2q10vyMHK" opacity="1" fill="#9f9f9f" fill-opacity="1"></use><g><use xlink:href="#c2q10vyMHK" opacity="1" fill-opacity="0" stroke="#000000" stroke-width="1" stroke-opacity="0"></use></g></g><g><use xlink:href="#cV6wKFPjA" opacity="1" fill="#9f9f9f" fill-opacity="1"></use><g><use xlink:href="#cV6wKFPjA" opacity="1" fill-opacity="0" stroke="#000000" stroke-width="1" stroke-opacity="0"></use></g></g><g><use xlink:href="#b2pq1u89rl" opacity="1" fill="#9f9f9f" fill-opacity="1"></use><g><use xlink:href="#b2pq1u89rl" opacity="1" fill-opacity="0" stroke="#000000" stroke-width="1" stroke-opacity="0"></use></g></g><g><use xlink:href="#a1UhillVko" opacity="1" fill="#5f5f5f" fill-opacity="1"></use><g><use xlink:href="#a1UhillVko" opacity="1" fill-opacity="0" stroke="#000000" stroke-width="1" stroke-opacity="0"></use></g></g><g><use xlink:href="#bhRuyXwOr" opacity="1" fill="#5f5f5f" fill-opacity="1"></use><g><use xlink:href="#bhRuyXwOr" opacity="1" fill-opacity="0" stroke="#000000" stroke-width="1" stroke-opacity="0"></use></g></g><g><use xlink:href="#fi8kN7HKN" opacity="1" fill="#5f5f5f" fill-opacity="1"></use><g><use xlink:href="#fi8kN7HKN" opacity="1" fill-opacity="0" stroke="#000000" stroke-width="1" stroke-opacity="0"></use></g></g><g><g><use xlink:href="#bt4YZOszb" opacity="1" fill-opacity="0" stroke="#000000" stroke-width="1" stroke-opacity="1"></use></g></g></g></g></svg>