<!DOCTYPE svg PUBLIC "-//W3C//DTD SVG 20010904//EN" "http://www.w3.org/TR/2001/REC-SVG-20010904/DTD/svg10.dtd">
<svg version="1.0" xmlns="http://www.w3.org/2000/svg" width="640px" height="640px" viewBox="0 0 6400 6400" preserveAspectRatio="xMidYMid meet">
<g id="layer101" fill="#000000" stroke="none">
 <path d="M3504 4261 c-22 -10 -55 -36 -73 -57 -29 -35 -32 -44 -29 -89 6 -69 43 -138 105 -195 55 -50 140 -90 193 -90 27 0 30 -3 30 -30 0 -17 -12 -83 -26 -147 -24 -102 -26 -121 -15 -166 22 -94 91 -177 177 -213 35 -15 38 -14 76 13 52 35 137 131 145 162 7 28 -22 125 -49 164 -11 15 -29 27 -40 27 -17 0 -19 -4 -14 -32 18 -97 18 -104 2 -117 -21 -18 -62 -7 -91 24 -30 33 -53 122 -57 215 l-3 75 58 3 c48 3 57 6 57 22 0 13 -12 21 -50 30 -28 7 -52 16 -55 20 -3 5 -7 44 -9 87 -7 126 -41 198 -119 252 -76 51 -156 67 -213 42z m103 -100 c61 -44 114 -129 128 -204 8 -42 1 -46 -46 -21 -106 54 -200 199 -157 242 18 18 31 15 75 -17z"/>
 <path d="M1206 4209 c-96 -24 -236 -129 -236 -177 0 -67 285 -727 374 -866 20 -32 35 -60 33 -62 -11 -11 -172 58 -229 98 l-27 18 -25 -33 c-33 -43 -69 -124 -61 -137 19 -31 174 -89 323 -122 130 -28 361 -31 442 -6 191 60 273 196 221 369 -19 60 -31 80 -79 128 -31 31 -68 64 -81 72 l-25 16 37 37 c20 20 49 60 63 88 36 72 32 176 -10 262 -57 117 -194 227 -358 288 -73 27 -98 31 -203 34 -66 2 -137 -1 -159 -7z m275 -164 c214 -55 369 -204 369 -355 0 -92 -58 -162 -116 -139 -52 20 -174 39 -249 39 -58 0 -77 -4 -99 -21 -15 -12 -29 -19 -32 -16 -10 10 -121 282 -152 374 -39 112 -39 121 -4 129 15 3 32 8 37 10 21 8 184 -5 246 -21z m93 -619 c113 -2 126 -4 200 -36 142 -60 212 -154 186 -250 -24 -88 -148 -128 -324 -104 -35 5 -46 11 -46 25 0 10 -14 42 -31 71 -43 72 -149 285 -149 299 0 6 9 8 22 3 11 -3 76 -7 142 -8z"/>
 <path d="M4122 4167 c-7 -8 -18 -32 -26 -55 -19 -52 -8 -165 30 -322 89 -374 231 -684 437 -958 l70 -94 40 6 c52 9 131 43 153 67 16 18 14 22 -57 101 -168 187 -247 302 -335 483 -62 128 -140 336 -126 334 4 0 34 -34 67 -75 159 -198 325 -318 412 -298 38 9 103 47 130 76 l21 23 -58 77 c-119 156 -240 387 -240 456 0 33 0 34 42 30 33 -2 43 1 46 14 4 21 -115 81 -160 81 -44 0 -88 -50 -88 -101 0 -61 49 -201 139 -396 23 -49 40 -91 38 -93 -7 -6 -120 83 -163 128 -111 118 -201 248 -284 413 -31 60 -60 111 -66 113 -6 2 -16 -2 -22 -10z"/>
 <path d="M2093 4130 c-76 -44 -78 -50 -44 -182 53 -201 158 -500 208 -585 19 -32 31 -43 49 -43 30 0 85 22 125 50 l29 21 -31 45 c-31 46 -91 168 -104 214 -9 32 156 -128 222 -215 54 -71 62 -77 102 -69 46 9 55 26 41 70 -15 44 -18 143 -7 199 7 37 5 44 -25 79 l-33 38 -40 -30 c-22 -16 -52 -49 -65 -75 l-24 -45 -44 31 c-120 86 -219 235 -257 387 -31 125 -36 140 -43 140 -4 0 -30 -14 -59 -30z"/>
 <path d="M2795 4111 c-23 -10 -53 -33 -68 -50 -23 -28 -27 -42 -27 -96 0 -161 146 -494 264 -603 40 -37 49 -41 78 -35 37 7 108 40 108 50 0 4 -22 41 -49 82 -105 160 -221 443 -221 538 0 68 34 37 179 -160 94 -128 124 -178 157 -262 28 -72 77 -157 109 -188 14 -14 26 -17 54 -12 53 10 111 43 111 63 0 9 -31 81 -70 160 -101 207 -122 270 -123 367 0 54 5 92 16 117 20 45 11 54 -41 38 -109 -35 -161 -96 -162 -189 0 -44 0 -44 -20 -26 -12 11 -50 58 -86 106 -35 48 -76 94 -89 103 -32 21 -70 20 -120 -3z"/>
 <path d="M790 2070 l0 -660 260 0 260 0 0 130 0 130 125 0 125 0 0 -130 0 -130 135 0 135 0 0 525 0 525 257 0 256 0 -6 -525 -5 -525 904 0 904 0 0 260 0 260 130 0 130 0 0 -260 0 -260 260 0 260 0 0 260 0 260 125 0 125 0 0 -260 0 -260 130 0 130 0 0 265 0 265 -130 0 -130 0 0 395 0 395 -130 0 -130 0 0 -395 0 -395 -255 0 -255 0 0 130 0 130 130 0 130 0 0 265 0 265 -130 0 -130 0 0 -265 0 -265 -130 0 -130 0 0 265 0 265 -1290 0 -1290 0 0 -130 0 -130 -125 0 -125 0 0 130 0 130 -260 0 -260 0 0 -660z m520 260 l0 -130 125 0 125 0 0 -130 0 -130 -125 0 -125 0 0 130 0 130 -130 0 -130 0 0 130 0 130 130 0 130 0 0 -130z m1540 -260 l0 -390 -125 0 -125 0 0 390 0 390 125 0 125 0 0 -390z m1030 0 l0 -390 -255 0 -255 0 0 390 0 390 255 0 255 0 0 -390z m-2570 -265 l0 -125 -130 0 -130 0 0 125 0 125 130 0 130 0 0 -125z"/>
 </g>
<g id="layer102" fill="#5f5f5f" stroke="none">
 <path d="M1564 2070 l0 -660 133 0 133 0 0 525 0 525 255 0 255 0 0 135 0 135 -388 0 -388 0 0 -660z"/>
 <path d="M3110 2070 l0 -660 385 0 385 0 0 135 0 135 -255 0 -255 0 0 390 0 390 255 0 255 0 0 135 0 135 -385 0 -385 0 0 -660z"/>
 <path d="M4910 2335 l0 -395 -125 0 -125 0 0 -265 0 -265 130 0 130 0 0 260 0 260 125 0 125 0 0 -260 0 -260 130 0 130 0 0 265 0 265 -130 0 -130 0 0 395 0 395 -130 0 -130 0 0 -395z"/>
 </g>

</svg>